<?xml version="1.0" encoding="UTF-8"?>
<svg width="86px" height="86px" viewBox="0 0 86 86" version="1.1" xmlns="http://www.w3.org/2000/svg" xmlns:xlink="http://www.w3.org/1999/xlink">
    <title>BG Logo</title>
    <g id="Page-1-Copy" stroke="none" stroke-width="1" fill="none" fill-rule="evenodd">
        <g id="iPhone-12-Pro-Copy" transform="translate(-39.000000, -39.000000)" fill="#85754E" fill-rule="nonzero">
            <g id="BG-Logo" transform="translate(39.000000, 39.000000)">
                <path d="M43,86 C66.7482442,86 86,66.7482442 86,43 C86,19.2517558 66.7482442,0 43,0 C19.2517558,0 0,19.2517558 0,43 C0.0263309495,66.7373291 19.2626709,85.9736691 43,86 Z M43,2.38888889 C65.4288973,2.38888889 83.6111111,20.5711027 83.6111111,43 C83.6111111,65.4288973 65.4288973,83.6111111 43,83.6111111 C20.5711027,83.6111111 2.38888889,65.4288973 2.38888889,43 C2.42505897,20.5861019 20.5861019,2.42505897 43,2.38888889 Z" id="Shape"></path>
                <path d="M13.0383333,49.4509162 L24.9558333,49.4509162 L24.9558333,51 L26,51 L26,33 L12,33 L12,51 L13.0266667,51 L13.0383333,49.4509162 Z M13.0383333,34.0189791 L24.9558333,34.0189791 L24.9558333,38.1420157 L13.0383333,38.1420157 L13.0383333,34.0189791 Z M13.0383333,39.1138743 L24.9558333,39.1138743 L24.9558333,43.236911 L13.0383333,43.236911 L13.0383333,39.1138743 Z M13.0383333,44.2735602 L24.9558333,44.2735602 L24.9558333,48.4437173 L13.0383333,48.4437173 L13.0383333,44.2735602 Z" id="Shape"></path>
                <path d="M48,35.3314286 C47.1779236,34.8042748 46.3059554,34.3583419 45.3965517,34 L45,34.5428571 C45.9074937,34.9656176 46.7833061,35.4525825 47.6206897,36 L48,35.3314286 Z" id="Path"></path>
                <path d="M32,46.0523256 L32.9898527,46.0523256 L32.9898527,43.8488372 L40.4549918,43.8488372 L40.4549918,45.372093 L34.3273322,45.372093 L34.3273322,50.0697674 L35.3171849,50.0697674 L35.3171849,46.244186 L40.4549918,46.244186 L40.4549918,51 L41.4448445,51 L41.4448445,46.244186 L46.6474632,46.244186 L46.6474632,48.9069767 C46.6474632,49.1162791 46.5826514,49.2034884 46.2585925,49.2267442 C45.3989712,49.2718744 44.5375263,49.2718744 43.6779051,49.2267442 C43.8467212,49.4855491 43.970212,49.7705336 44.0432079,50.0697674 C45.0443814,50.1356827 46.0499816,50.0770833 47.0363339,49.8953488 C47.5312602,49.7267442 47.6255319,49.4709302 47.6255319,48.877907 L47.6255319,45.372093 L41.4448445,45.372093 L41.4448445,43.8488372 L49.0101473,43.8488372 L49.0101473,46.0523256 L50,46.0523256 L50,43 L32,43 L32,46.0523256 Z" id="Path"></path>
                <path d="M35.4378378,34 L35,34.5509642 C35.8864865,34.9917355 37.0108108,35.6143251 37.6054054,36 L38,35.3939394 C37.1765351,34.8730999 36.3206704,34.4074683 35.4378378,34 L35.4378378,34 Z" id="Path"></path>
                <path d="M43.4329268,33.6176471 L51,33.6176471 L51,32.7588235 L43.8353659,32.7588235 C44.069539,32.2489612 44.2731271,31.7265303 44.445122,31.1941176 L43.4390244,31 C43.0254048,32.6353167 42.1858916,34.1416998 41,35.3764706 C41.2967755,35.5552334 41.5727538,35.7642795 41.8231707,36 C42.4671846,35.2784729 43.0085448,34.4772887 43.4329268,33.6176471 L43.4329268,33.6176471 Z" id="Path"></path>
                <polygon id="Path" points="32 39.0828471 32 39.8938156 46.5924942 39.8938156 46.5924942 41.2123687 34.0026569 41.2123687 34.0026569 42 47.5788774 42 47.5788774 39.8938156 50 39.8938156 50 39.0828471 47.5788774 39.0828471 47.5788774 37 34.1341747 37 34.1341747 37.764294 46.5924942 37.764294 46.5924942 39.0828471"></polygon>
                <path d="M33.9907692,33.4532453 L41,33.4532453 L41,32.6666667 L34.4830769,32.6666667 C34.7538462,32.1881188 35,31.7260726 35.2276923,31.220022 L34.2307692,31 C33.5243424,32.6592128 32.4218351,34.1608729 31,35.40044 L31.8061538,36 C32.6386737,35.2268191 33.3714665,34.3725527 33.9907692,33.4532453 L33.9907692,33.4532453 Z" id="Path"></path>
                <polygon id="Path" points="59.9433198 35 60.9817814 35 60.9817814 33.9032258 64 33.9032258 64 33.1344086 60.9817814 33.1344086 60.9817814 32 59.9433198 32 59.9433198 33.1344086 55 33.1344086 55 33.9032258 59.9433198 33.9032258"></polygon>
                <rect id="Rectangle" x="56" y="35" width="18" height="1"></rect>
                <path d="M72,49 L72,44 L57,44 L57,49 L72,49 Z M64.8941176,44.7905138 L71.0117647,44.7905138 L71.0117647,46.1080369 L64.8941176,46.1080369 L64.8941176,44.7905138 Z M64.8941176,46.8853755 L71.0117647,46.8853755 L71.0117647,48.2028986 L64.8941176,48.2028986 L64.8941176,46.8853755 Z M57.9882353,44.7905138 L63.9352941,44.7905138 L63.9352941,46.1080369 L57.9882353,46.1080369 L57.9882353,44.7905138 Z M57.9882353,46.8853755 L63.9352941,46.8853755 L63.9352941,48.2028986 L57.9882353,48.2028986 L57.9882353,46.8853755 Z" id="Shape"></path>
                <path d="M58,37 L58,41 L72,41 L72,37 L58,37 Z M64.4948454,40.3369863 L59.0042955,40.3369863 L59.0042955,39.3013699 L64.4948454,39.3013699 L64.4948454,40.3369863 Z M64.4948454,38.6383562 L59.0042955,38.6383562 L59.0042955,37.6575342 L64.4948454,37.6575342 L64.4948454,38.6383562 Z M70.9716495,40.3369863 L65.4810997,40.3369863 L65.4810997,39.3013699 L70.9716495,39.3013699 L70.9716495,40.3369863 Z M70.9716495,38.6383562 L65.4810997,38.6383562 L65.4810997,37.6575342 L70.9716495,37.6575342 L70.9716495,38.6383562 Z" id="Shape"></path>
                <rect id="Rectangle" x="56" y="42" width="18" height="1"></rect>
                <polygon id="Path" points="68.4384772 35 69.4663494 35 69.4663494 33.9032258 74 33.9032258 74 33.1344086 69.4663494 33.1344086 69.4663494 32 68.4384772 32 68.4384772 33.1344086 65 33.1344086 65 33.9032258 68.4384772 33.9032258"></polygon>
                <rect id="Rectangle" x="55" y="50" width="20" height="1"></rect>
                <rect id="Rectangle" x="12" y="54.95" width="63" height="1"></rect>
            </g>
        </g>
    </g>
</svg>
